<?xml version="1.0" encoding="UTF-8" standalone="no"?>
<!DOCTYPE svg PUBLIC "-//W3C//DTD SVG 1.1//EN"
 "http://www.w3.org/Graphics/SVG/1.1/DTD/svg11.dtd">
<!-- Generated by graphviz version 12.2.1 (20241206.2353)
 -->
<!-- Title: G Pages: 1 -->
<svg width="1899pt" height="669pt"
 viewBox="0.00 0.00 1899.25 669.08" xmlns="http://www.w3.org/2000/svg" xmlns:xlink="http://www.w3.org/1999/xlink">
<g id="graph0" class="graph" transform="scale(1 1) rotate(0) translate(4 665.08)">
<title>G</title>
<polygon fill="white" stroke="none" points="-4,4 -4,-665.08 1895.25,-665.08 1895.25,4 -4,4"/>
<g id="clust1" class="cluster">
<title>cluster_module.Amrize_Testing_LB</title>
<polygon fill="none" stroke="black" points="1201.5,-9.08 1201.5,-89.08 1788.38,-89.08 1788.38,-9.08 1201.5,-9.08"/>
<text text-anchor="middle" x="1494.94" y="-71.78" font-family="sans-serif" font-size="14.00">module.Amrize_Testing_LB</text>
</g>
<g id="clust2" class="cluster">
<title>cluster_module.ECR</title>
<polygon fill="none" stroke="black" points="781.25,-347.08 781.25,-427.08 1020.25,-427.08 1020.25,-347.08 781.25,-347.08"/>
<text text-anchor="middle" x="900.75" y="-409.78" font-family="sans-serif" font-size="14.00">module.ECR</text>
</g>
<g id="clust3" class="cluster">
<title>cluster_module.ECS</title>
<polygon fill="none" stroke="black" points="753.5,-97.08 753.5,-339.08 1801.88,-339.08 1801.88,-97.08 753.5,-97.08"/>
<text text-anchor="middle" x="1277.69" y="-321.78" font-family="sans-serif" font-size="14.00">module.ECS</text>
</g>
<g id="clust4" class="cluster">
<title>cluster_module.VPCs</title>
<polygon fill="none" stroke="black" points="8,-445.08 8,-653.08 1883.25,-653.08 1883.25,-445.08 8,-445.08"/>
<text text-anchor="middle" x="945.62" y="-635.78" font-family="sans-serif" font-size="14.00">module.VPCs</text>
</g>
<!-- module.Amrize_Testing_LB.aws_lb.Amrize_Testing_LB -->
<g id="node1" class="node">
<title>module.Amrize_Testing_LB.aws_lb.Amrize_Testing_LB</title>
<polygon fill="none" stroke="black" points="1395.75,-53.08 1209.5,-53.08 1209.5,-17.08 1395.75,-17.08 1395.75,-53.08"/>
<text text-anchor="middle" x="1302.62" y="-31.53" font-family="sans-serif" font-size="14.00">aws_lb.Amrize_Testing_LB</text>
</g>
<!-- module.VPCs.aws_security_group.sg_public_instance -->
<g id="node20" class="node">
<title>module.VPCs.aws_security_group.sg_public_instance</title>
<polygon fill="none" stroke="black" points="474,-489.08 201.5,-489.08 201.5,-453.08 474,-453.08 474,-489.08"/>
<text text-anchor="middle" x="337.75" y="-467.53" font-family="sans-serif" font-size="14.00">aws_security_group.sg_public_instance</text>
</g>
<!-- module.Amrize_Testing_LB.aws_lb.Amrize_Testing_LB&#45;&gt;module.VPCs.aws_security_group.sg_public_instance -->
<g id="edge1" class="edge">
<title>module.Amrize_Testing_LB.aws_lb.Amrize_Testing_LB&#45;&gt;module.VPCs.aws_security_group.sg_public_instance</title>
<path fill="none" stroke="black" d="M1209.22,-16.67C1093.14,1.9 890.47,18.99 736,-50.08 543.72,-136.05 400.01,-363.44 354.23,-443.06"/>
<polygon fill="black" stroke="black" points="351.3,-441.13 349.4,-451.55 357.39,-444.59 351.3,-441.13"/>
</g>
<!-- module.VPCs.aws_subnet.public_subnet -->
<g id="node22" class="node">
<title>module.VPCs.aws_subnet.public_subnet</title>
<polygon fill="none" stroke="black" points="700,-509.08 510,-509.08 510,-473.08 700,-473.08 700,-509.08"/>
<text text-anchor="middle" x="605" y="-487.53" font-family="sans-serif" font-size="14.00">aws_subnet.public_subnet</text>
</g>
<!-- module.Amrize_Testing_LB.aws_lb.Amrize_Testing_LB&#45;&gt;module.VPCs.aws_subnet.public_subnet -->
<g id="edge2" class="edge">
<title>module.Amrize_Testing_LB.aws_lb.Amrize_Testing_LB&#45;&gt;module.VPCs.aws_subnet.public_subnet</title>
<path fill="none" stroke="black" d="M1209.1,-41.93C1053.41,-53.84 754.14,-78.45 736,-93.08 619.96,-186.66 606.41,-385.73 605.61,-461.22"/>
<polygon fill="black" stroke="black" points="602.11,-461.11 605.58,-471.12 609.11,-461.13 602.11,-461.11"/>
</g>
<!-- module.Amrize_Testing_LB.aws_lb_listener.web -->
<g id="node2" class="node">
<title>module.Amrize_Testing_LB.aws_lb_listener.web</title>
<polygon fill="none" stroke="black" points="1780.38,-53.08 1634.62,-53.08 1634.62,-17.08 1780.38,-17.08 1780.38,-53.08"/>
<text text-anchor="middle" x="1707.5" y="-31.53" font-family="sans-serif" font-size="14.00">aws_lb_listener.web</text>
</g>
<!-- module.Amrize_Testing_LB.aws_lb_listener.web&#45;&gt;module.Amrize_Testing_LB.aws_lb.Amrize_Testing_LB -->
<g id="edge3" class="edge">
<title>module.Amrize_Testing_LB.aws_lb_listener.web&#45;&gt;module.Amrize_Testing_LB.aws_lb.Amrize_Testing_LB</title>
<path fill="none" stroke="black" d="M1634.47,-35.08C1571.2,-35.08 1478.4,-35.08 1407.17,-35.08"/>
<polygon fill="black" stroke="black" points="1407.44,-31.58 1397.44,-35.08 1407.44,-38.58 1407.44,-31.58"/>
</g>
<!-- module.ECS.aws_lb_target_group.ecs_targets -->
<g id="node11" class="node">
<title>module.ECS.aws_lb_target_group.ecs_targets</title>
<polygon fill="none" stroke="black" points="1417.5,-249.08 1187.75,-249.08 1187.75,-213.08 1417.5,-213.08 1417.5,-249.08"/>
<text text-anchor="middle" x="1302.62" y="-227.53" font-family="sans-serif" font-size="14.00">aws_lb_target_group.ecs_targets</text>
</g>
<!-- module.Amrize_Testing_LB.aws_lb_listener.web&#45;&gt;module.ECS.aws_lb_target_group.ecs_targets -->
<g id="edge4" class="edge">
<title>module.Amrize_Testing_LB.aws_lb_listener.web&#45;&gt;module.ECS.aws_lb_target_group.ecs_targets</title>
<path fill="none" stroke="black" d="M1634.17,-45.25C1601.51,-53.26 1564.73,-67.57 1539.75,-93.08 1503.47,-130.14 1543.56,-170.84 1503.75,-204.08 1482.82,-221.56 1456.13,-230.91 1429.12,-235.45"/>
<polygon fill="black" stroke="black" points="1428.84,-231.96 1419.44,-236.85 1429.84,-238.88 1428.84,-231.96"/>
</g>
<!-- module.ECR.aws_ecr_repository.ECR_Amrize -->
<g id="node3" class="node">
<title>module.ECR.aws_ecr_repository.ECR_Amrize</title>
<polygon fill="none" stroke="black" points="1012.25,-391.08 789.25,-391.08 789.25,-355.08 1012.25,-355.08 1012.25,-391.08"/>
<text text-anchor="middle" x="900.75" y="-369.53" font-family="sans-serif" font-size="14.00">aws_ecr_repository.ECR_Amrize</text>
</g>
<!-- module.ECS.aws_cloudwatch_log_group.apache_logs -->
<g id="node4" class="node">
<title>module.ECS.aws_cloudwatch_log_group.apache_logs</title>
<polygon fill="none" stroke="black" points="1040,-249.08 761.5,-249.08 761.5,-213.08 1040,-213.08 1040,-249.08"/>
<text text-anchor="middle" x="900.75" y="-227.53" font-family="sans-serif" font-size="14.00">aws_cloudwatch_log_group.apache_logs</text>
</g>
<!-- module.ECS.aws_ecs_cluster.ECS_Amrize -->
<g id="node5" class="node">
<title>module.ECS.aws_ecs_cluster.ECS_Amrize</title>
<polygon fill="none" stroke="black" points="1402.12,-303.08 1203.12,-303.08 1203.12,-267.08 1402.12,-267.08 1402.12,-303.08"/>
<text text-anchor="middle" x="1302.62" y="-281.53" font-family="sans-serif" font-size="14.00">aws_ecs_cluster.ECS_Amrize</text>
</g>
<!-- module.ECS.aws_ecs_service.apache -->
<g id="node6" class="node">
<title>module.ECS.aws_ecs_service.apache</title>
<polygon fill="none" stroke="black" points="1793.88,-303.08 1621.12,-303.08 1621.12,-267.08 1793.88,-267.08 1793.88,-303.08"/>
<text text-anchor="middle" x="1707.5" y="-281.53" font-family="sans-serif" font-size="14.00">aws_ecs_service.apache</text>
</g>
<!-- module.ECS.aws_ecs_service.apache&#45;&gt;module.ECS.aws_ecs_cluster.ECS_Amrize -->
<g id="edge5" class="edge">
<title>module.ECS.aws_ecs_service.apache&#45;&gt;module.ECS.aws_ecs_cluster.ECS_Amrize</title>
<path fill="none" stroke="black" d="M1621.06,-285.08C1560.58,-285.08 1478.93,-285.08 1413.59,-285.08"/>
<polygon fill="black" stroke="black" points="1413.93,-281.58 1403.93,-285.08 1413.93,-288.58 1413.93,-281.58"/>
</g>
<!-- module.ECS.aws_ecs_task_definition.apache -->
<g id="node7" class="node">
<title>module.ECS.aws_ecs_task_definition.apache</title>
<polygon fill="none" stroke="black" points="1414.12,-195.08 1191.12,-195.08 1191.12,-159.08 1414.12,-159.08 1414.12,-195.08"/>
<text text-anchor="middle" x="1302.62" y="-173.53" font-family="sans-serif" font-size="14.00">aws_ecs_task_definition.apache</text>
</g>
<!-- module.ECS.aws_ecs_service.apache&#45;&gt;module.ECS.aws_ecs_task_definition.apache -->
<g id="edge6" class="edge">
<title>module.ECS.aws_ecs_service.apache&#45;&gt;module.ECS.aws_ecs_task_definition.apache</title>
<path fill="none" stroke="black" d="M1668.59,-266.65C1628.55,-247.98 1563.14,-219.69 1503.75,-204.08 1478.75,-197.51 1451.56,-192.48 1425.5,-188.66"/>
<polygon fill="black" stroke="black" points="1426.31,-185.24 1415.92,-187.3 1425.33,-192.17 1426.31,-185.24"/>
</g>
<!-- module.ECS.aws_ecs_service.apache&#45;&gt;module.ECS.aws_lb_target_group.ecs_targets -->
<g id="edge7" class="edge">
<title>module.ECS.aws_ecs_service.apache&#45;&gt;module.ECS.aws_lb_target_group.ecs_targets</title>
<path fill="none" stroke="black" d="M1621.06,-273.63C1565.28,-266.15 1491.5,-256.26 1429.1,-247.9"/>
<polygon fill="black" stroke="black" points="1429.87,-244.47 1419.5,-246.61 1428.94,-251.41 1429.87,-244.47"/>
</g>
<!-- module.ECS.aws_ecs_service.apache&#45;&gt;module.VPCs.aws_security_group.sg_public_instance -->
<g id="edge8" class="edge">
<title>module.ECS.aws_ecs_service.apache&#45;&gt;module.VPCs.aws_security_group.sg_public_instance</title>
<path fill="none" stroke="black" d="M1642.12,-303.56C1527.35,-335.63 1279.4,-401.05 1065.5,-431.08 1009.92,-438.88 681.41,-455.12 485.6,-464.33"/>
<polygon fill="black" stroke="black" points="485.69,-460.82 475.86,-464.79 486.02,-467.81 485.69,-460.82"/>
</g>
<!-- module.VPCs.aws_subnet.private_subnet -->
<g id="node21" class="node">
<title>module.VPCs.aws_subnet.private_subnet</title>
<polygon fill="none" stroke="black" points="1400.62,-509.08 1204.62,-509.08 1204.62,-473.08 1400.62,-473.08 1400.62,-509.08"/>
<text text-anchor="middle" x="1302.62" y="-487.53" font-family="sans-serif" font-size="14.00">aws_subnet.private_subnet</text>
</g>
<!-- module.ECS.aws_ecs_service.apache&#45;&gt;module.VPCs.aws_subnet.private_subnet -->
<g id="edge9" class="edge">
<title>module.ECS.aws_ecs_service.apache&#45;&gt;module.VPCs.aws_subnet.private_subnet</title>
<path fill="none" stroke="black" d="M1691.43,-303.53C1660.5,-340 1585.82,-421.05 1503.75,-459.08 1475.46,-472.19 1442.77,-480.06 1412.13,-484.74"/>
<polygon fill="black" stroke="black" points="1411.85,-481.24 1402.44,-486.11 1412.83,-488.18 1411.85,-481.24"/>
</g>
<!-- module.ECS.aws_ecs_task_definition.apache&#45;&gt;module.ECR.aws_ecr_repository.ECR_Amrize -->
<g id="edge10" class="edge">
<title>module.ECS.aws_ecs_task_definition.apache&#45;&gt;module.ECR.aws_ecr_repository.ECR_Amrize</title>
<path fill="none" stroke="black" d="M1190.69,-169.71C1158.61,-173.06 1125.76,-182.56 1101.5,-204.08 1053.76,-246.43 1112.22,-299.61 1065.5,-343.08 1053.55,-354.2 1038.91,-361.87 1023.33,-367.07"/>
<polygon fill="black" stroke="black" points="1022.48,-363.68 1013.88,-369.87 1024.46,-370.39 1022.48,-363.68"/>
</g>
<!-- module.ECS.aws_ecs_task_definition.apache&#45;&gt;module.ECS.aws_cloudwatch_log_group.apache_logs -->
<g id="edge11" class="edge">
<title>module.ECS.aws_ecs_task_definition.apache&#45;&gt;module.ECS.aws_cloudwatch_log_group.apache_logs</title>
<path fill="none" stroke="black" d="M1190.74,-192.04C1161.7,-195.95 1130.42,-200.17 1101.5,-204.08 1084.79,-206.34 1067.29,-208.7 1049.89,-211.05"/>
<polygon fill="black" stroke="black" points="1049.42,-207.58 1039.98,-212.39 1050.36,-214.52 1049.42,-207.58"/>
</g>
<!-- module.ECS.aws_iam_role.ecs_execution_role -->
<g id="node8" class="node">
<title>module.ECS.aws_iam_role.ecs_execution_role</title>
<polygon fill="none" stroke="black" points="1016.38,-141.08 785.12,-141.08 785.12,-105.08 1016.38,-105.08 1016.38,-141.08"/>
<text text-anchor="middle" x="900.75" y="-119.53" font-family="sans-serif" font-size="14.00">aws_iam_role.ecs_execution_role</text>
</g>
<!-- module.ECS.aws_ecs_task_definition.apache&#45;&gt;module.ECS.aws_iam_role.ecs_execution_role -->
<g id="edge12" class="edge">
<title>module.ECS.aws_ecs_task_definition.apache&#45;&gt;module.ECS.aws_iam_role.ecs_execution_role</title>
<path fill="none" stroke="black" d="M1190.74,-162.12C1161.7,-158.21 1130.42,-153.99 1101.5,-150.08 1077.67,-146.86 1052.23,-143.43 1027.78,-140.12"/>
<polygon fill="black" stroke="black" points="1028.5,-136.69 1018.12,-138.81 1027.56,-143.62 1028.5,-136.69"/>
</g>
<!-- module.ECS.aws_iam_role.ecs_task_role -->
<g id="node9" class="node">
<title>module.ECS.aws_iam_role.ecs_task_role</title>
<polygon fill="none" stroke="black" points="997.25,-195.08 804.25,-195.08 804.25,-159.08 997.25,-159.08 997.25,-195.08"/>
<text text-anchor="middle" x="900.75" y="-173.53" font-family="sans-serif" font-size="14.00">aws_iam_role.ecs_task_role</text>
</g>
<!-- module.ECS.aws_ecs_task_definition.apache&#45;&gt;module.ECS.aws_iam_role.ecs_task_role -->
<g id="edge13" class="edge">
<title>module.ECS.aws_ecs_task_definition.apache&#45;&gt;module.ECS.aws_iam_role.ecs_task_role</title>
<path fill="none" stroke="black" d="M1190.77,-177.08C1134.01,-177.08 1065.2,-177.08 1008.97,-177.08"/>
<polygon fill="black" stroke="black" points="1009.05,-173.58 999.05,-177.08 1009.05,-180.58 1009.05,-173.58"/>
</g>
<!-- module.ECS.aws_iam_role_policy_attachment.ecs_execution_role_policy -->
<g id="node10" class="node">
<title>module.ECS.aws_iam_role_policy_attachment.ecs_execution_role_policy</title>
<polygon fill="none" stroke="black" points="1503.75,-141.08 1101.5,-141.08 1101.5,-105.08 1503.75,-105.08 1503.75,-141.08"/>
<text text-anchor="middle" x="1302.62" y="-119.53" font-family="sans-serif" font-size="14.00">aws_iam_role_policy_attachment.ecs_execution_role_policy</text>
</g>
<!-- module.ECS.aws_iam_role_policy_attachment.ecs_execution_role_policy&#45;&gt;module.ECS.aws_iam_role.ecs_execution_role -->
<g id="edge14" class="edge">
<title>module.ECS.aws_iam_role_policy_attachment.ecs_execution_role_policy&#45;&gt;module.ECS.aws_iam_role.ecs_execution_role</title>
<path fill="none" stroke="black" d="M1101.1,-123.08C1076.23,-123.08 1051.38,-123.08 1028.07,-123.08"/>
<polygon fill="black" stroke="black" points="1028.27,-119.58 1018.27,-123.08 1028.27,-126.58 1028.27,-119.58"/>
</g>
<!-- module.VPCs.aws_vpc.vpc_virginia -->
<g id="node23" class="node">
<title>module.VPCs.aws_vpc.vpc_virginia</title>
<polygon fill="none" stroke="black" points="165.5,-507.08 16,-507.08 16,-471.08 165.5,-471.08 165.5,-507.08"/>
<text text-anchor="middle" x="90.75" y="-485.53" font-family="sans-serif" font-size="14.00">aws_vpc.vpc_virginia</text>
</g>
<!-- module.ECS.aws_lb_target_group.ecs_targets&#45;&gt;module.VPCs.aws_vpc.vpc_virginia -->
<g id="edge15" class="edge">
<title>module.ECS.aws_lb_target_group.ecs_targets&#45;&gt;module.VPCs.aws_vpc.vpc_virginia</title>
<path fill="none" stroke="black" d="M1187.38,-245.09C1159.25,-248.93 1129.23,-253.35 1101.5,-258.08 698.86,-326.76 592.14,-324.76 201.5,-444.08 181.74,-450.11 160.62,-458.33 142.23,-466.09"/>
<polygon fill="black" stroke="black" points="140.95,-462.83 133.14,-469.99 143.71,-469.26 140.95,-462.83"/>
</g>
<!-- module.VPCs.data.aws_availability_zones.available -->
<g id="node12" class="node">
<title>module.VPCs.data.aws_availability_zones.available</title>
<polygon fill="none" stroke="black" points="465,-563.08 210.5,-563.08 210.5,-527.08 465,-527.08 465,-563.08"/>
<text text-anchor="middle" x="337.75" y="-541.53" font-family="sans-serif" font-size="14.00">data.aws_availability_zones.available</text>
</g>
<!-- module.VPCs.aws_eip.nat_eip -->
<g id="node13" class="node">
<title>module.VPCs.aws_eip.nat_eip</title>
<polygon fill="none" stroke="black" points="664.75,-563.08 545.25,-563.08 545.25,-527.08 664.75,-527.08 664.75,-563.08"/>
<text text-anchor="middle" x="605" y="-541.53" font-family="sans-serif" font-size="14.00">aws_eip.nat_eip</text>
</g>
<!-- module.VPCs.aws_internet_gateway.igw -->
<g id="node14" class="node">
<title>module.VPCs.aws_internet_gateway.igw</title>
<polygon fill="none" stroke="black" points="432.38,-617.08 243.12,-617.08 243.12,-581.08 432.38,-581.08 432.38,-617.08"/>
<text text-anchor="middle" x="337.75" y="-595.53" font-family="sans-serif" font-size="14.00">aws_internet_gateway.igw</text>
</g>
<!-- module.VPCs.aws_eip.nat_eip&#45;&gt;module.VPCs.aws_internet_gateway.igw -->
<g id="edge16" class="edge">
<title>module.VPCs.aws_eip.nat_eip&#45;&gt;module.VPCs.aws_internet_gateway.igw</title>
<path fill="none" stroke="black" d="M544.8,-557.48C522.61,-562.1 497.15,-567.36 474,-572.08 464.01,-574.12 453.59,-576.22 443.18,-578.32"/>
<polygon fill="black" stroke="black" points="442.5,-574.88 433.38,-580.29 443.87,-581.75 442.5,-574.88"/>
</g>
<!-- module.VPCs.aws_internet_gateway.igw&#45;&gt;module.VPCs.aws_vpc.vpc_virginia -->
<g id="edge17" class="edge">
<title>module.VPCs.aws_internet_gateway.igw&#45;&gt;module.VPCs.aws_vpc.vpc_virginia</title>
<path fill="none" stroke="black" d="M242.63,-586.01C228.52,-582.42 214.39,-577.87 201.5,-572.08 170.23,-558.03 139.53,-533.65 118.59,-514.94"/>
<polygon fill="black" stroke="black" points="121.1,-512.49 111.36,-508.33 116.38,-517.66 121.1,-512.49"/>
</g>
<!-- module.VPCs.aws_nat_gateway.nat_gw -->
<g id="node15" class="node">
<title>module.VPCs.aws_nat_gateway.nat_gw</title>
<polygon fill="none" stroke="black" points="990.88,-563.08 810.62,-563.08 810.62,-527.08 990.88,-527.08 990.88,-563.08"/>
<text text-anchor="middle" x="900.75" y="-541.53" font-family="sans-serif" font-size="14.00">aws_nat_gateway.nat_gw</text>
</g>
<!-- module.VPCs.aws_nat_gateway.nat_gw&#45;&gt;module.VPCs.aws_eip.nat_eip -->
<g id="edge18" class="edge">
<title>module.VPCs.aws_nat_gateway.nat_gw&#45;&gt;module.VPCs.aws_eip.nat_eip</title>
<path fill="none" stroke="black" d="M810.42,-545.08C767.46,-545.08 716.71,-545.08 676.52,-545.08"/>
<polygon fill="black" stroke="black" points="676.73,-541.58 666.73,-545.08 676.73,-548.58 676.73,-541.58"/>
</g>
<!-- module.VPCs.aws_nat_gateway.nat_gw&#45;&gt;module.VPCs.aws_subnet.public_subnet -->
<g id="edge19" class="edge">
<title>module.VPCs.aws_nat_gateway.nat_gw&#45;&gt;module.VPCs.aws_subnet.public_subnet</title>
<path fill="none" stroke="black" d="M810.42,-528.66C779.24,-522.93 743.95,-516.44 711.57,-510.49"/>
<polygon fill="black" stroke="black" points="712.21,-507.05 701.74,-508.68 710.95,-513.93 712.21,-507.05"/>
</g>
<!-- module.VPCs.aws_route_table.private_crt -->
<g id="node16" class="node">
<title>module.VPCs.aws_route_table.private_crt</title>
<polygon fill="none" stroke="black" points="1400.62,-563.08 1204.62,-563.08 1204.62,-527.08 1400.62,-527.08 1400.62,-563.08"/>
<text text-anchor="middle" x="1302.62" y="-541.53" font-family="sans-serif" font-size="14.00">aws_route_table.private_crt</text>
</g>
<!-- module.VPCs.aws_route_table.private_crt&#45;&gt;module.VPCs.aws_nat_gateway.nat_gw -->
<g id="edge20" class="edge">
<title>module.VPCs.aws_route_table.private_crt&#45;&gt;module.VPCs.aws_nat_gateway.nat_gw</title>
<path fill="none" stroke="black" d="M1204.32,-545.08C1143.16,-545.08 1064.43,-545.08 1002.61,-545.08"/>
<polygon fill="black" stroke="black" points="1002.79,-541.58 992.79,-545.08 1002.79,-548.58 1002.79,-541.58"/>
</g>
<!-- module.VPCs.aws_route_table.public_crt -->
<g id="node17" class="node">
<title>module.VPCs.aws_route_table.public_crt</title>
<polygon fill="none" stroke="black" points="700,-617.08 510,-617.08 510,-581.08 700,-581.08 700,-617.08"/>
<text text-anchor="middle" x="605" y="-595.53" font-family="sans-serif" font-size="14.00">aws_route_table.public_crt</text>
</g>
<!-- module.VPCs.aws_route_table.public_crt&#45;&gt;module.VPCs.aws_internet_gateway.igw -->
<g id="edge21" class="edge">
<title>module.VPCs.aws_route_table.public_crt&#45;&gt;module.VPCs.aws_internet_gateway.igw</title>
<path fill="none" stroke="black" d="M509.74,-599.08C488.43,-599.08 465.69,-599.08 443.96,-599.08"/>
<polygon fill="black" stroke="black" points="444.22,-595.58 434.22,-599.08 444.22,-602.58 444.22,-595.58"/>
</g>
<!-- module.VPCs.aws_route_table_association.crta_private_subnet -->
<g id="node18" class="node">
<title>module.VPCs.aws_route_table_association.crta_private_subnet</title>
<polygon fill="none" stroke="black" points="1875.25,-536.08 1539.75,-536.08 1539.75,-500.08 1875.25,-500.08 1875.25,-536.08"/>
<text text-anchor="middle" x="1707.5" y="-514.53" font-family="sans-serif" font-size="14.00">aws_route_table_association.crta_private_subnet</text>
</g>
<!-- module.VPCs.aws_route_table_association.crta_private_subnet&#45;&gt;module.VPCs.aws_route_table.private_crt -->
<g id="edge22" class="edge">
<title>module.VPCs.aws_route_table_association.crta_private_subnet&#45;&gt;module.VPCs.aws_route_table.private_crt</title>
<path fill="none" stroke="black" d="M1539.44,-529.28C1496.51,-532.15 1451.44,-535.17 1412.34,-537.79"/>
<polygon fill="black" stroke="black" points="1412.19,-534.3 1402.45,-538.46 1412.66,-541.28 1412.19,-534.3"/>
</g>
<!-- module.VPCs.aws_route_table_association.crta_private_subnet&#45;&gt;module.VPCs.aws_subnet.private_subnet -->
<g id="edge23" class="edge">
<title>module.VPCs.aws_route_table_association.crta_private_subnet&#45;&gt;module.VPCs.aws_subnet.private_subnet</title>
<path fill="none" stroke="black" d="M1539.44,-506.88C1496.51,-504.01 1451.44,-500.99 1412.34,-498.37"/>
<polygon fill="black" stroke="black" points="1412.66,-494.88 1402.45,-497.7 1412.19,-501.86 1412.66,-494.88"/>
</g>
<!-- module.VPCs.aws_route_table_association.crta_public_subnet -->
<g id="node19" class="node">
<title>module.VPCs.aws_route_table_association.crta_public_subnet</title>
<polygon fill="none" stroke="black" points="1065.5,-617.08 736,-617.08 736,-581.08 1065.5,-581.08 1065.5,-617.08"/>
<text text-anchor="middle" x="900.75" y="-595.53" font-family="sans-serif" font-size="14.00">aws_route_table_association.crta_public_subnet</text>
</g>
<!-- module.VPCs.aws_route_table_association.crta_public_subnet&#45;&gt;module.VPCs.aws_route_table.public_crt -->
<g id="edge24" class="edge">
<title>module.VPCs.aws_route_table_association.crta_public_subnet&#45;&gt;module.VPCs.aws_route_table.public_crt</title>
<path fill="none" stroke="black" d="M735.7,-599.08C727.57,-599.08 719.52,-599.08 711.64,-599.08"/>
<polygon fill="black" stroke="black" points="711.75,-595.58 701.75,-599.08 711.75,-602.58 711.75,-595.58"/>
</g>
<!-- module.VPCs.aws_route_table_association.crta_public_subnet&#45;&gt;module.VPCs.aws_subnet.public_subnet -->
<g id="edge25" class="edge">
<title>module.VPCs.aws_route_table_association.crta_public_subnet&#45;&gt;module.VPCs.aws_subnet.public_subnet</title>
<path fill="none" stroke="black" d="M751.58,-580.7C746.18,-578.15 740.96,-575.28 736,-572.08 711.76,-556.44 723.29,-535.1 700,-518.08 698.63,-517.08 697.22,-516.11 695.78,-515.18"/>
<polygon fill="black" stroke="black" points="697.62,-512.2 687.2,-510.3 694.16,-518.29 697.62,-512.2"/>
</g>
<!-- module.VPCs.aws_security_group.sg_public_instance&#45;&gt;module.VPCs.aws_vpc.vpc_virginia -->
<g id="edge26" class="edge">
<title>module.VPCs.aws_security_group.sg_public_instance&#45;&gt;module.VPCs.aws_vpc.vpc_virginia</title>
<path fill="none" stroke="black" d="M201.35,-481.03C193.17,-481.63 185.07,-482.22 177.19,-482.8"/>
<polygon fill="black" stroke="black" points="177.06,-479.3 167.34,-483.53 177.57,-486.28 177.06,-479.3"/>
</g>
<!-- module.VPCs.aws_subnet.private_subnet&#45;&gt;module.VPCs.aws_subnet.public_subnet -->
<g id="edge27" class="edge">
<title>module.VPCs.aws_subnet.private_subnet&#45;&gt;module.VPCs.aws_subnet.public_subnet</title>
<path fill="none" stroke="black" d="M1204.17,-491.08C1074.37,-491.08 845.61,-491.08 711.75,-491.08"/>
<polygon fill="black" stroke="black" points="711.81,-487.58 701.81,-491.08 711.81,-494.58 711.81,-487.58"/>
</g>
<!-- module.VPCs.aws_subnet.public_subnet&#45;&gt;module.VPCs.data.aws_availability_zones.available -->
<g id="edge28" class="edge">
<title>module.VPCs.aws_subnet.public_subnet&#45;&gt;module.VPCs.data.aws_availability_zones.available</title>
<path fill="none" stroke="black" d="M513.46,-509.51C490.01,-514.29 464.6,-519.46 440.61,-524.34"/>
<polygon fill="black" stroke="black" points="439.92,-520.91 430.82,-526.34 441.31,-527.77 439.92,-520.91"/>
</g>
<!-- module.VPCs.aws_subnet.public_subnet&#45;&gt;module.VPCs.aws_vpc.vpc_virginia -->
<g id="edge29" class="edge">
<title>module.VPCs.aws_subnet.public_subnet&#45;&gt;module.VPCs.aws_vpc.vpc_virginia</title>
<path fill="none" stroke="black" d="M509.59,-496.76C497.61,-497.31 485.52,-497.77 474,-498.08 352.93,-501.34 322.51,-503.03 201.5,-498.08 193.55,-497.75 185.29,-497.3 177.03,-496.76"/>
<polygon fill="black" stroke="black" points="177.52,-493.29 167.3,-496.09 177.03,-500.27 177.52,-493.29"/>
</g>
</g>
</svg>
